<svg width="11" height="19" viewBox="0 0 11 19" fill="none" xmlns="http://www.w3.org/2000/svg">
<path d="M0.337646 12.9189H2.33765C2.33765 13.9989 3.70765 14.9189 5.33765 14.9189C6.96765 14.9189 8.33765 13.9989 8.33765 12.9189C8.33765 11.8189 7.29765 11.4189 5.09765 10.8889C2.97765 10.3589 0.337646 9.69895 0.337646 6.91895C0.337646 5.12895 1.80765 3.60895 3.83765 3.09895V0.918945H6.83765V3.09895C8.86765 3.60895 10.3376 5.12895 10.3376 6.91895H8.33765C8.33765 5.83895 6.96765 4.91895 5.33765 4.91895C3.70765 4.91895 2.33765 5.83895 2.33765 6.91895C2.33765 8.01895 3.37765 8.41895 5.57765 8.94895C7.69765 9.47894 10.3376 10.1389 10.3376 12.9189C10.3376 14.7089 8.86765 16.2289 6.83765 16.7389V18.9189H3.83765V16.7389C1.80765 16.2289 0.337646 14.7089 0.337646 12.9189Z" fill="black"/>
</svg>
