<svg width="101" height="21" viewBox="0 0 101 21" fill="none" xmlns="http://www.w3.org/2000/svg">
<path d="M9.7214 9.61568C10.0876 9.24943 10.0876 8.66068 10.0876 7.48193C10.0876 6.30318 10.0876 5.71443 9.7214 5.34818M9.7214 9.61568C9.35515 9.98193 8.7664 9.98193 7.58765 9.98193H5.08765C3.9089 9.98193 3.32015 9.98193 2.9539 9.61568M9.7214 5.34818C9.35515 4.98193 8.7664 4.98193 7.58765 4.98193H5.08765C3.9089 4.98193 3.32015 4.98193 2.9539 5.34818M2.9539 5.34818C2.58765 5.71443 2.58765 6.30318 2.58765 7.48193C2.58765 8.66068 2.58765 9.24943 2.9539 9.61568M6.96265 7.48193C6.96265 7.64769 6.8968 7.80666 6.77959 7.92388C6.66238 8.04109 6.50341 8.10693 6.33765 8.10693C6.17189 8.10693 6.01292 8.04109 5.8957 7.92388C5.77849 7.80666 5.71265 7.64769 5.71265 7.48193C5.71265 7.31617 5.77849 7.1572 5.8957 7.03999C6.01292 6.92278 6.17189 6.85693 6.33765 6.85693C6.50341 6.85693 6.66238 6.92278 6.77959 7.03999C6.8968 7.1572 6.96265 7.31617 6.96265 7.48193Z" stroke="#00849C" stroke-width="1.5"/>
<path d="M10.0876 6.85693C9.59037 6.85693 9.11345 6.65939 8.76182 6.30776C8.41019 5.95613 8.21265 5.47921 8.21265 4.98193M10.0876 8.10693C9.59037 8.10693 9.11345 8.30448 8.76182 8.65611C8.41019 9.00774 8.21265 9.48465 8.21265 9.98193M2.58765 6.85693C3.08493 6.85693 3.56184 6.65939 3.91347 6.30776C4.2651 5.95613 4.46265 5.47921 4.46265 4.98193M2.58765 8.10693C3.08493 8.10693 3.56184 8.30448 3.91347 8.65611C4.2651 9.00774 4.46265 9.48465 4.46265 9.98193M1.33765 16.4744H2.75015C3.3814 16.4744 4.02077 16.5407 4.63515 16.6669C5.7321 16.8916 6.86058 16.9166 7.9664 16.7407M7.38515 14.6801C7.46015 14.6713 7.53202 14.6615 7.60077 14.6507C8.17015 14.5601 8.64827 14.2551 9.08577 13.9244L10.2158 13.0713C10.4175 12.9249 10.6603 12.8461 10.9095 12.8461C11.1587 12.8461 11.4016 12.9249 11.6033 13.0713C11.9614 13.3419 12.0714 13.7876 11.8445 14.1513C11.5801 14.5751 11.2076 15.1169 10.8501 15.4482M7.38515 14.6801L7.3164 14.6876M7.38515 14.6801C7.48516 14.653 7.57687 14.6014 7.65202 14.5301C7.74635 14.4487 7.82339 14.3492 7.87859 14.2375C7.93378 14.1258 7.966 14.0042 7.97335 13.8798C7.98069 13.7555 7.963 13.6309 7.92134 13.5135C7.87967 13.3961 7.81487 13.2882 7.73077 13.1963C7.64933 13.1059 7.55447 13.0285 7.44952 12.9669C5.7014 11.9238 2.98077 12.7182 1.33765 13.8838M7.38515 14.6801C7.36258 14.6851 7.33952 14.6876 7.3164 14.6876M7.3164 14.6876C6.93946 14.7253 6.55974 14.7262 6.18265 14.6901" stroke="#00849C" stroke-width="1.5" stroke-linecap="round"/>
<path d="M28.6835 9.9438C28.6149 9.72837 28.5225 9.53542 28.4065 9.36497C28.2929 9.19215 28.1568 9.04537 27.9982 8.92463C27.8395 8.80152 27.6584 8.70801 27.4548 8.64409C27.2536 8.58017 27.0322 8.54821 26.7908 8.54821C26.3812 8.54821 26.0119 8.65356 25.6828 8.86426C25.3537 9.07496 25.0933 9.38391 24.9016 9.7911C24.7122 10.1959 24.6175 10.6919 24.6175 11.279C24.6175 11.8685 24.7134 12.3669 24.9051 12.7741C25.0969 13.1813 25.3597 13.4902 25.6935 13.7009C26.0273 13.9116 26.4072 14.017 26.8334 14.017C27.2287 14.017 27.5732 13.9365 27.8668 13.7755C28.1627 13.6145 28.3912 13.3872 28.5521 13.0937C28.7155 12.7977 28.7972 12.4497 28.7972 12.0496L29.0813 12.1029H27.0003V11.1974H29.859V12.0248C29.859 12.6356 29.7287 13.1659 29.4683 13.6157C29.2103 14.0631 28.8528 14.4088 28.3959 14.6526C27.9413 14.8965 27.4205 15.0184 26.8334 15.0184C26.1752 15.0184 25.5976 14.8669 25.1004 14.5638C24.6056 14.2608 24.2197 13.8311 23.9428 13.2748C23.6658 12.7161 23.5273 12.0532 23.5273 11.2861C23.5273 10.7061 23.6078 10.1853 23.7688 9.72363C23.9297 9.26198 24.1558 8.87018 24.447 8.54821C24.7406 8.22387 25.085 7.97647 25.4804 7.80602C25.8781 7.6332 26.3126 7.54679 26.7837 7.54679C27.1767 7.54679 27.5424 7.60479 27.881 7.72079C28.2219 7.8368 28.5249 8.00133 28.7901 8.2144C29.0576 8.42747 29.2789 8.68078 29.4541 8.97434C29.6293 9.26554 29.7477 9.58869 29.8092 9.9438H28.6835ZM33.5175 15.029C32.9801 15.029 32.5173 14.9142 32.129 14.6846C31.7431 14.4526 31.4448 14.127 31.2341 13.708C31.0258 13.2866 30.9216 12.793 30.9216 12.2272C30.9216 11.6685 31.0258 11.176 31.2341 10.7499C31.4448 10.3238 31.7384 9.99115 32.1148 9.75204C32.4936 9.51293 32.9363 9.39338 33.4429 9.39338C33.7507 9.39338 34.049 9.44428 34.3378 9.54608C34.6266 9.64788 34.8859 9.80768 35.1155 10.0255C35.3452 10.2433 35.5263 10.5262 35.6588 10.8742C35.7914 11.2198 35.8577 11.6401 35.8577 12.1349V12.5113H31.5218V11.7158H34.8172C34.8172 11.4365 34.7604 11.1891 34.6468 10.9736C34.5331 10.7558 34.3733 10.5842 34.1674 10.4587C33.9638 10.3332 33.7247 10.2705 33.45 10.2705C33.1517 10.2705 32.8913 10.3439 32.6688 10.4907C32.4486 10.6351 32.2782 10.8245 32.1574 11.0589C32.0391 11.2909 31.9799 11.543 31.9799 11.8153V12.4367C31.9799 12.8013 32.0438 13.1114 32.1716 13.3671C32.3018 13.6228 32.4829 13.8181 32.715 13.953C32.947 14.0856 33.218 14.1519 33.5282 14.1519C33.7294 14.1519 33.9129 14.1235 34.0786 14.0667C34.2443 14.0075 34.3875 13.9199 34.5083 13.8039C34.629 13.6879 34.7213 13.5447 34.7853 13.3742L35.7902 13.5553C35.7097 13.8512 35.5653 14.1105 35.357 14.333C35.151 14.5532 34.8918 14.7248 34.5793 14.8479C34.2692 14.9687 33.9152 15.029 33.5175 15.029ZM38.0976 11.6803V14.9189H37.0358V9.4644H38.055V10.3522H38.1224C38.2479 10.0634 38.4444 9.83135 38.7119 9.65616C38.9818 9.48097 39.3215 9.39338 39.7311 9.39338C40.1028 9.39338 40.4283 9.4715 40.7077 9.62775C40.987 9.78163 41.2037 10.0113 41.3575 10.3167C41.5114 10.6221 41.5884 10.9997 41.5884 11.4495V14.9189H40.5266V11.5773C40.5266 11.182 40.4236 10.873 40.2176 10.6505C40.0117 10.4256 39.7287 10.3131 39.3689 10.3131C39.1227 10.3131 38.9037 10.3664 38.7119 10.4729C38.5225 10.5795 38.3722 10.7357 38.2609 10.9417C38.152 11.1453 38.0976 11.3915 38.0976 11.6803ZM45.3632 15.029C44.8258 15.029 44.363 14.9142 43.9747 14.6846C43.5888 14.4526 43.2905 14.127 43.0798 13.708C42.8715 13.2866 42.7673 12.793 42.7673 12.2272C42.7673 11.6685 42.8715 11.176 43.0798 10.7499C43.2905 10.3238 43.5841 9.99115 43.9605 9.75204C44.3393 9.51293 44.782 9.39338 45.2886 9.39338C45.5964 9.39338 45.8947 9.44428 46.1835 9.54608C46.4724 9.64788 46.7316 9.80768 46.9612 10.0255C47.1909 10.2433 47.372 10.5262 47.5046 10.8742C47.6371 11.2198 47.7034 11.6401 47.7034 12.1349V12.5113H43.3675V11.7158H46.6629C46.6629 11.4365 46.6061 11.1891 46.4925 10.9736C46.3788 10.7558 46.219 10.5842 46.0131 10.4587C45.8095 10.3332 45.5704 10.2705 45.2957 10.2705C44.9974 10.2705 44.737 10.3439 44.5145 10.4907C44.2943 10.6351 44.1239 10.8245 44.0031 11.0589C43.8848 11.2909 43.8256 11.543 43.8256 11.8153V12.4367C43.8256 12.8013 43.8895 13.1114 44.0173 13.3671C44.1475 13.6228 44.3287 13.8181 44.5607 13.953C44.7927 14.0856 45.0637 14.1519 45.3739 14.1519C45.5751 14.1519 45.7586 14.1235 45.9243 14.0667C46.09 14.0075 46.2332 13.9199 46.354 13.8039C46.4747 13.6879 46.5671 13.5447 46.631 13.3742L47.6359 13.5553C47.5554 13.8512 47.411 14.1105 47.2027 14.333C46.9967 14.5532 46.7375 14.7248 46.425 14.8479C46.1149 14.9687 45.7609 15.029 45.3632 15.029ZM48.8815 14.9189V9.4644H49.9078V10.3309H49.9646C50.064 10.0373 50.2392 9.80649 50.4902 9.63841C50.7435 9.46795 51.0299 9.38272 51.3495 9.38272C51.4158 9.38272 51.494 9.38509 51.5839 9.38983C51.6762 9.39456 51.7485 9.40048 51.8005 9.40758V10.4232C51.7579 10.4114 51.6822 10.3983 51.5733 10.3841C51.4644 10.3676 51.3555 10.3593 51.2466 10.3593C50.9956 10.3593 50.7719 10.4126 50.5754 10.5191C50.3813 10.6233 50.2274 10.7689 50.1137 10.9559C50.0001 11.1405 49.9433 11.3512 49.9433 11.588V14.9189H48.8815ZM54.2579 15.0397C53.9123 15.0397 53.5998 14.9758 53.3204 14.8479C53.0411 14.7177 52.8197 14.5295 52.6564 14.2833C52.4954 14.0371 52.4149 13.7352 52.4149 13.3778C52.4149 13.07 52.4741 12.8167 52.5924 12.6178C52.7108 12.4189 52.8706 12.2615 53.0718 12.1455C53.2731 12.0295 53.498 11.9419 53.7466 11.8827C53.9951 11.8235 54.2485 11.7786 54.5065 11.7478C54.8332 11.7099 55.0984 11.6791 55.302 11.6555C55.5056 11.6294 55.6535 11.588 55.7458 11.5312C55.8382 11.4743 55.8843 11.382 55.8843 11.2542V11.2293C55.8843 10.9192 55.7967 10.6789 55.6216 10.5084C55.4487 10.338 55.1907 10.2528 54.8474 10.2528C54.4899 10.2528 54.2082 10.3321 54.0022 10.4907C53.7986 10.6469 53.6578 10.8209 53.5797 11.0127L52.5818 10.7854C52.7002 10.454 52.873 10.1865 53.1003 9.98287C53.3299 9.7769 53.5939 9.62775 53.8922 9.53542C54.1905 9.44073 54.5041 9.39338 54.8332 9.39338C55.051 9.39338 55.2818 9.41942 55.5257 9.4715C55.7719 9.52122 56.0015 9.61355 56.2146 9.74849C56.43 9.88343 56.6064 10.0764 56.7437 10.3273C56.881 10.5759 56.9497 10.8991 56.9497 11.2968V14.9189H55.9128V14.1732H55.8701C55.8015 14.3105 55.6985 14.4455 55.5612 14.578C55.4239 14.7106 55.2475 14.8207 55.0321 14.9083C54.8166 14.9959 54.5586 15.0397 54.2579 15.0397ZM54.4887 14.1874C54.7823 14.1874 55.0333 14.1294 55.2416 14.0134C55.4523 13.8974 55.6121 13.7459 55.721 13.5589C55.8323 13.3695 55.8879 13.1671 55.8879 12.9516V12.2485C55.85 12.2864 55.7766 12.3219 55.6677 12.355C55.5612 12.3858 55.4393 12.413 55.302 12.4367C55.1646 12.458 55.0309 12.4781 54.9007 12.4971C54.7705 12.5136 54.6616 12.5278 54.574 12.5397C54.368 12.5657 54.1798 12.6095 54.0093 12.6711C53.8413 12.7326 53.7063 12.8214 53.6045 12.9374C53.5051 13.051 53.4554 13.2026 53.4554 13.392C53.4554 13.6547 53.5524 13.8536 53.7466 13.9885C53.9407 14.1211 54.1881 14.1874 54.4887 14.1874ZM59.4257 7.64622V14.9189H58.3639V7.64622H59.4257ZM63.5859 14.9189V7.64622H66.1782C66.7416 7.64622 67.2092 7.74328 67.5809 7.93741C67.955 8.13154 68.2343 8.40024 68.419 8.74352C68.6036 9.08443 68.696 9.4786 68.696 9.92605C68.696 10.3711 68.6024 10.7629 68.4154 11.1015C68.2308 11.4376 67.9514 11.6992 67.5773 11.8863C67.2057 12.0733 66.7381 12.1668 66.1746 12.1668H64.2109V11.2222H66.0752C66.4303 11.2222 66.7192 11.1713 66.9417 11.0695C67.1666 10.9677 67.3311 10.8198 67.4353 10.6256C67.5395 10.4315 67.5916 10.1983 67.5916 9.92605C67.5916 9.65143 67.5383 9.4135 67.4318 9.21227C67.3276 9.01104 67.163 8.85716 66.9381 8.75062C66.7156 8.64172 66.4232 8.58727 66.061 8.58727H64.6832V14.9189H63.5859ZM67.1761 11.6377L68.9729 14.9189H67.7229L65.9616 11.6377H67.1761ZM72.2284 15.029C71.691 15.029 71.2282 14.9142 70.84 14.6846C70.4541 14.4526 70.1558 14.127 69.9451 13.708C69.7367 13.2866 69.6326 12.793 69.6326 12.2272C69.6326 11.6685 69.7367 11.176 69.9451 10.7499C70.1558 10.3238 70.4493 9.99115 70.8258 9.75204C71.2045 9.51293 71.6472 9.39338 72.1539 9.39338C72.4616 9.39338 72.7599 9.44428 73.0488 9.54608C73.3376 9.64788 73.5968 9.80768 73.8265 10.0255C74.0561 10.2433 74.2372 10.5262 74.3698 10.8742C74.5024 11.2198 74.5686 11.6401 74.5686 12.1349V12.5113H70.2327V11.7158H73.5282C73.5282 11.4365 73.4713 11.1891 73.3577 10.9736C73.2441 10.7558 73.0843 10.5842 72.8783 10.4587C72.6747 10.3332 72.4356 10.2705 72.161 10.2705C71.8627 10.2705 71.6023 10.3439 71.3797 10.4907C71.1596 10.6351 70.9891 10.8245 70.8684 11.0589C70.75 11.2909 70.6908 11.543 70.6908 11.8153V12.4367C70.6908 12.8013 70.7547 13.1114 70.8826 13.3671C71.0128 13.6228 71.1939 13.8181 71.4259 13.953C71.6579 14.0856 71.929 14.1519 72.2391 14.1519C72.4403 14.1519 72.6238 14.1235 72.7895 14.0667C72.9552 14.0075 73.0985 13.9199 73.2192 13.8039C73.34 13.6879 73.4323 13.5447 73.4962 13.3742L74.5012 13.5553C74.4207 13.8512 74.2763 14.1105 74.0679 14.333C73.862 14.5532 73.6027 14.7248 73.2902 14.8479C72.9801 14.9687 72.6262 15.029 72.2284 15.029ZM75.7467 16.9644V9.4644H76.7837V10.3486H76.8724C76.934 10.235 77.0228 10.1036 77.1388 9.95446C77.2548 9.80531 77.4158 9.6751 77.6217 9.56383C77.8277 9.4502 78.1 9.39338 78.4385 9.39338C78.8788 9.39338 79.2718 9.50465 79.6175 9.72718C79.9631 9.94972 80.2342 10.2705 80.4307 10.6895C80.6296 11.1086 80.729 11.6128 80.729 12.2023C80.729 12.7918 80.6307 13.2973 80.4342 13.7187C80.2377 14.1377 79.9679 14.4608 79.6246 14.6881C79.2813 14.913 78.8895 15.0255 78.4492 15.0255C78.1177 15.0255 77.8466 14.9698 77.6359 14.8586C77.4276 14.7473 77.2643 14.6171 77.1459 14.468C77.0275 14.3188 76.9364 14.1862 76.8724 14.0702H76.8085V16.9644H75.7467ZM76.7872 12.1917C76.7872 12.5752 76.8429 12.9114 76.9541 13.2002C77.0654 13.489 77.2264 13.7151 77.4371 13.8785C77.6478 14.0394 77.9058 14.1199 78.2112 14.1199C78.5285 14.1199 78.7936 14.0359 79.0067 13.8678C79.2197 13.6974 79.3807 13.4665 79.4896 13.1753C79.6009 12.8841 79.6565 12.5563 79.6565 12.1917C79.6565 11.8318 79.6021 11.5087 79.4932 11.2222C79.3867 10.9358 79.2257 10.7097 79.0102 10.5439C78.7972 10.3782 78.5308 10.2954 78.2112 10.2954C77.9035 10.2954 77.643 10.3747 77.43 10.5333C77.2193 10.6919 77.0595 10.9133 76.9506 11.1974C76.8417 11.4814 76.7872 11.8129 76.7872 12.1917ZM84.2162 15.029C83.7048 15.029 83.2586 14.9118 82.8774 14.6775C82.4963 14.4431 82.2003 14.1152 81.9896 13.6938C81.7789 13.2724 81.6736 12.78 81.6736 12.2165C81.6736 11.6507 81.7789 11.1559 81.9896 10.7322C82.2003 10.3084 82.4963 9.97931 82.8774 9.74494C83.2586 9.51056 83.7048 9.39338 84.2162 9.39338C84.7276 9.39338 85.1738 9.51056 85.555 9.74494C85.9361 9.97931 86.2321 10.3084 86.4428 10.7322C86.6535 11.1559 86.7588 11.6507 86.7588 12.2165C86.7588 12.78 86.6535 13.2724 86.4428 13.6938C86.2321 14.1152 85.9361 14.4431 85.555 14.6775C85.1738 14.9118 84.7276 15.029 84.2162 15.029ZM84.2197 14.1377C84.5512 14.1377 84.8258 14.0501 85.0436 13.8749C85.2614 13.6997 85.4224 13.4665 85.5266 13.1753C85.6331 12.8841 85.6864 12.5634 85.6864 12.213C85.6864 11.865 85.6331 11.5454 85.5266 11.2542C85.4224 10.9606 85.2614 10.7251 85.0436 10.5475C84.8258 10.3699 84.5512 10.2812 84.2197 10.2812C83.8859 10.2812 83.609 10.3699 83.3888 10.5475C83.171 10.7251 83.0088 10.9606 82.9023 11.2542C82.7981 11.5454 82.746 11.865 82.746 12.213C82.746 12.5634 82.7981 12.8841 82.9023 13.1753C83.0088 13.4665 83.171 13.6997 83.3888 13.8749C83.609 14.0501 83.8859 14.1377 84.2197 14.1377ZM87.944 14.9189V9.4644H88.9703V10.3309H89.0271C89.1265 10.0373 89.3017 9.80649 89.5527 9.63841C89.806 9.46795 90.0924 9.38272 90.412 9.38272C90.4783 9.38272 90.5565 9.38509 90.6464 9.38983C90.7387 9.39456 90.811 9.40048 90.863 9.40758V10.4232C90.8204 10.4114 90.7447 10.3983 90.6358 10.3841C90.5269 10.3676 90.418 10.3593 90.3091 10.3593C90.0581 10.3593 89.8344 10.4126 89.6379 10.5191C89.4438 10.6233 89.2899 10.7689 89.1762 10.9559C89.0626 11.1405 89.0058 11.3512 89.0058 11.588V14.9189H87.944ZM94.6503 9.4644V10.3167H91.6709V9.4644H94.6503ZM92.4699 8.15758H93.5317V13.3174C93.5317 13.5233 93.5625 13.6784 93.624 13.7826C93.6856 13.8844 93.7649 13.9542 93.862 13.9921C93.9614 14.0276 94.0691 14.0454 94.1851 14.0454C94.2704 14.0454 94.3449 14.0394 94.4088 14.0276C94.4728 14.0158 94.5225 14.0063 94.558 13.9992L94.7498 14.8763C94.6882 14.9 94.6006 14.9237 94.487 14.9474C94.3733 14.9734 94.2313 14.9876 94.0608 14.99C93.7815 14.9947 93.5211 14.945 93.2796 14.8408C93.0381 14.7367 92.8428 14.5757 92.6936 14.3579C92.5445 14.1401 92.4699 13.8666 92.4699 13.5376V8.15758ZM99.8243 10.7961L98.862 10.9665C98.8217 10.8434 98.7578 10.7262 98.6702 10.615C98.585 10.5037 98.469 10.4126 98.3222 10.3415C98.1754 10.2705 97.9919 10.235 97.7718 10.235C97.4711 10.235 97.2202 10.3025 97.0189 10.4374C96.8177 10.57 96.7171 10.7416 96.7171 10.9523C96.7171 11.1346 96.7846 11.2814 96.9195 11.3927C97.0544 11.5039 97.2722 11.5951 97.5729 11.6661L98.4394 11.865C98.9413 11.981 99.3153 12.1597 99.5615 12.4012C99.8078 12.6427 99.9309 12.9564 99.9309 13.3422C99.9309 13.6689 99.8362 13.9601 99.6468 14.2158C99.4597 14.4691 99.1981 14.668 98.862 14.8124C98.5282 14.9568 98.1411 15.029 97.7008 15.029C97.09 15.029 96.5916 14.8988 96.2057 14.6384C95.8198 14.3756 95.5831 14.0028 95.4955 13.5198L96.5218 13.3635C96.5857 13.6311 96.7171 13.8335 96.9159 13.9708C97.1148 14.1057 97.374 14.1732 97.6936 14.1732C98.0417 14.1732 98.3198 14.101 98.5282 13.9566C98.7365 13.8098 98.8407 13.6311 98.8407 13.4204C98.8407 13.2499 98.7767 13.1067 98.6489 12.9907C98.5234 12.8747 98.3305 12.7871 98.0701 12.7279L97.1468 12.5255C96.6378 12.4095 96.2614 12.2248 96.0175 11.9715C95.776 11.7182 95.6553 11.3974 95.6553 11.0091C95.6553 10.6872 95.7453 10.4055 95.9252 10.164C96.1051 9.9225 96.3537 9.73429 96.6709 9.59934C96.9882 9.46203 97.3516 9.39338 97.7611 9.39338C98.3506 9.39338 98.8146 9.52122 99.1532 9.7769C99.4917 10.0302 99.7154 10.3699 99.8243 10.7961Z" fill="#00849C"/>
</svg>
