<svg width="13" height="13" viewBox="0 0 13 13" fill="none" xmlns="http://www.w3.org/2000/svg">
<path fill-rule="evenodd" clip-rule="evenodd" d="M5.99565 0.99487C6.21656 0.91447 6.45873 0.91447 6.67965 0.99487L11.6796 2.81287C11.8725 2.88307 12.0392 3.01094 12.1569 3.17911C12.2746 3.34728 12.3377 3.5476 12.3376 3.75287V11.9029C12.3376 12.1681 12.2323 12.4224 12.0448 12.61C11.8572 12.7975 11.6029 12.9029 11.3376 12.9029H1.33765C1.07243 12.9029 0.818076 12.7975 0.63054 12.61C0.443003 12.4224 0.337647 12.1681 0.337647 11.9029V3.75287C0.337585 3.5476 0.400697 3.34728 0.518415 3.17911C0.636132 3.01094 0.80275 2.88307 0.995647 2.81287L5.99565 0.99487ZM6.33765 1.93487L1.33765 3.75287V8.90287H3.33765C3.60286 8.90287 3.85722 9.00823 4.04475 9.19576C4.23229 9.3833 4.33765 9.63765 4.33765 9.90287V11.9029H7.33765V7.90287C7.33765 7.63765 7.443 7.3833 7.63054 7.19576C7.81808 7.00823 8.07243 6.90287 8.33765 6.90287H11.3376V3.75287L6.33765 1.93487Z" fill="black"/>
</svg>
