<svg width="14" height="15" viewBox="0 0 14 15" fill="none" xmlns="http://www.w3.org/2000/svg">
<path d="M1.80805 6.95895L12.848 1.72895M12.848 1.72895L10.784 0.918945M12.848 1.72895L12.08 3.87895M13.3376 13.9189H10.9376V6.91895C10.9376 6.78634 10.9882 6.65916 11.0782 6.56539C11.1683 6.47162 11.2903 6.41895 11.4176 6.41895H12.8576C12.985 6.41895 13.107 6.47162 13.1971 6.56539C13.2871 6.65916 13.3376 6.78634 13.3376 6.91895V13.9189ZM8.53765 13.9189H6.13765V8.41895C6.13765 8.28634 6.18822 8.15916 6.27824 8.06539C6.36825 7.97162 6.49034 7.91895 6.61765 7.91895H8.05765C8.18495 7.91895 8.30704 7.97162 8.39706 8.06539C8.48708 8.15916 8.53765 8.28634 8.53765 8.41895V13.9189ZM3.73765 13.9189H1.33765V9.91895C1.33765 9.78634 1.38822 9.65916 1.47824 9.56539C1.56825 9.47162 1.69034 9.41895 1.81765 9.41895H3.25765C3.38495 9.41895 3.50704 9.47162 3.59706 9.56539C3.68708 9.65916 3.73765 9.78634 3.73765 9.91895V13.9189Z" stroke="black" stroke-linecap="round" stroke-linejoin="round"/>
</svg>
