<svg width="36" height="36" viewBox="0 0 36 36" fill="none" xmlns="http://www.w3.org/2000/svg">
<path d="M6.75 31.5C8.40683 31.5 9.75 30.1568 9.75 28.5C9.75 26.8432 8.40683 25.5 6.75 25.5C5.09314 25.5 3.75 26.8432 3.75 28.5C3.75 30.1568 5.09314 31.5 6.75 31.5Z" stroke="black" stroke-width="2" stroke-linejoin="round"/>
<path d="M6.75 10.5C8.40683 10.5 9.75 9.1569 9.75 7.5C9.75 5.84314 8.40683 4.5 6.75 4.5C5.09314 4.5 3.75 5.84314 3.75 7.5C3.75 9.1569 5.09314 10.5 6.75 10.5Z" stroke="black" stroke-width="2" stroke-linejoin="round"/>
<path d="M6.75 21C8.40683 21 9.75 19.6569 9.75 18C9.75 16.3431 8.40683 15 6.75 15C5.09314 15 3.75 16.3431 3.75 18C3.75 19.6569 5.09314 21 6.75 21Z" stroke="black" stroke-width="2" stroke-linejoin="round"/>
<path d="M15.75 18H32.25" stroke="black" stroke-width="2" stroke-linecap="round" stroke-linejoin="round"/>
<path d="M15.75 28.5H32.25" stroke="black" stroke-width="2" stroke-linecap="round" stroke-linejoin="round"/>
<path d="M15.75 7.5H32.25" stroke="black" stroke-width="2" stroke-linecap="round" stroke-linejoin="round"/>
</svg>
