<svg width="16" height="16" viewBox="0 0 16 16" fill="none" xmlns="http://www.w3.org/2000/svg">
<g clip-path="url(#clip0_366_8868)">
<path d="M10.9626 12.1689C11.2942 12.1689 11.6121 12.3006 11.8465 12.5351C12.0809 12.7695 12.2126 13.0874 12.2126 13.4189C12.2126 13.7505 12.0809 14.0684 11.8465 14.3028C11.6121 14.5372 11.2942 14.6689 10.9626 14.6689C10.6311 14.6689 10.3132 14.5372 10.0788 14.3028C9.84434 14.0684 9.71265 13.7505 9.71265 13.4189C9.71265 12.7252 10.2689 12.1689 10.9626 12.1689ZM0.962646 2.16895H3.0064L3.5939 3.41895H12.8376C13.0034 3.41895 13.1624 3.48479 13.2796 3.602C13.3968 3.71921 13.4626 3.87819 13.4626 4.04395C13.4626 4.1502 13.4314 4.25645 13.3876 4.35645L11.1501 8.4002C10.9376 8.78145 10.5251 9.04395 10.0564 9.04395H5.40015L4.83765 10.0627L4.8189 10.1377C4.8189 10.1791 4.83536 10.2189 4.86466 10.2482C4.89396 10.2775 4.93371 10.2939 4.97515 10.2939H12.2126V11.5439H4.71265C4.38113 11.5439 4.06318 11.4122 3.82876 11.1778C3.59434 10.9434 3.46265 10.6255 3.46265 10.2939C3.46265 10.0752 3.5189 9.86895 3.61265 9.69395L4.46265 8.1627L2.21265 3.41895H0.962646V2.16895ZM4.71265 12.1689C5.04417 12.1689 5.36211 12.3006 5.59653 12.5351C5.83095 12.7695 5.96265 13.0874 5.96265 13.4189C5.96265 13.7505 5.83095 14.0684 5.59653 14.3028C5.36211 14.5372 5.04417 14.6689 4.71265 14.6689C4.38113 14.6689 4.06318 14.5372 3.82876 14.3028C3.59434 14.0684 3.46265 13.7505 3.46265 13.4189C3.46265 12.7252 4.0189 12.1689 4.71265 12.1689ZM10.3376 7.79395L12.0751 4.66895H4.17515L5.65015 7.79395H10.3376Z" fill="black"/>
</g>
<defs>
<clipPath id="clip0_366_8868">
<rect width="15" height="15" fill="white" transform="translate(0.337646 0.918945)"/>
</clipPath>
</defs>
</svg>
